<?xml version="1.0" encoding="UTF-8"?>
<svg width="1029px" height="1030px" viewBox="0 0 1029 1030" version="1.1" xmlns="http://www.w3.org/2000/svg" xmlns:xlink="http://www.w3.org/1999/xlink">
    <!-- Generator: Sketch 48.2 (47327) - http://www.bohemiancoding.com/sketch -->
    <title>NEW</title>
    <desc>Created with Sketch.</desc>
    <defs>
        <filter x="-0.7%" y="-0.5%" width="101.4%" height="101.4%" filterUnits="objectBoundingBox" id="filter-1">
            <feOffset dx="0" dy="2" in="SourceAlpha" result="shadowOffsetOuter1"></feOffset>
            <feGaussianBlur stdDeviation="2" in="shadowOffsetOuter1" result="shadowBlurOuter1"></feGaussianBlur>
            <feColorMatrix values="0 0 0 0 0.760784314   0 0 0 0 0.639215686   0 0 0 0 0.384313725  0 0 0 0.370103034 0" type="matrix" in="shadowBlurOuter1" result="shadowMatrixOuter1"></feColorMatrix>
            <feMerge>
                <feMergeNode in="shadowMatrixOuter1"></feMergeNode>
                <feMergeNode in="SourceGraphic"></feMergeNode>
            </feMerge>
        </filter>
        <linearGradient x1="0%" y1="1.92283127%" x2="60.396446%" y2="52.0328865%" id="linearGradient-2">
            <stop stop-color="#E3D09B" offset="0%"></stop>
            <stop stop-color="#C2A362" offset="100%"></stop>
        </linearGradient>
    </defs>
    <g id="Page-1" stroke="none" stroke-width="1" fill="none" fill-rule="evenodd">
        <g id="NEW" filter="url(#filter-1)" transform="translate(515.000000, 514.000000) rotate(90.000000) translate(-515.000000, -514.000000) translate(3.000000, 2.000000)">
            <polygon id="Shape" fill="url(#linearGradient-2)" fill-rule="nonzero" points="0.021489 0 0.021489 1023.63775 1023.70426 0"></polygon>
            <path d="M301.220413,592.096223 C291.083542,588.716243 281.739733,586.530461 267.230274,583.54957 L138.625244,557.507451 C128.883369,555.320646 115.367541,551.745214 101.254102,547.170012 C104.23704,549.757953 104.23704,549.757953 112.188129,556.515868 C116.16265,560.093346 125.506459,568.64 130.076545,573.212132 L195.274453,638.407993 C208.59176,651.729393 218.531133,660.471498 226.67972,666.634871 L197.658756,695.652765 C192.094017,688.101789 182.752255,677.566851 169.23438,664.05 L66.667376,561.481973 C56.333007,551.148627 48.781007,544.38969 39.437198,537.434277 L70.446446,506.424006 C77.20436,509.603418 86.74669,511.988745 103.640452,515.367702 L229.661634,540.809141 C241.589291,543.193444 258.286578,547.173082 270.611278,550.748514 C262.063601,543.793102 249.54038,532.463056 241.191225,524.1139 L174.403099,457.326798 C162.67601,445.598686 154.129357,437.846118 145.384182,431.488316 L174.405146,402.465306 C181.16306,411.60957 188.119496,419.362138 200.243628,431.485246 L305.395503,536.636098 C316.526005,547.768646 324.477094,554.921556 332.625681,560.68584 L301.220413,592.096223 Z" id="Path" fill="#FFFFFF"></path>
            <path d="M448.111924,445.204711 L386.092405,507.222183 C374.167818,519.147793 369.000122,524.714579 361.447099,533.063734 C354.688162,523.918447 348.525812,516.963034 336.799746,505.235945 L229.262544,397.699767 C218.924081,387.361304 212.565257,381.797589 202.030319,373.647978 C210.379474,366.095978 215.745692,361.126803 227.87187,348.999602 L287.901058,288.971437 C297.840431,279.033087 304.001758,272.075628 312.151368,261.938757 L338.388939,288.175305 C329.840239,294.734698 323.085395,300.698526 311.357282,312.426639 L254.110463,369.673458 L295.057037,410.620032 L343.360159,362.319979 C353.695552,351.983563 360.056423,344.825536 367.807967,335.085708 L393.84804,361.126804 C384.504231,368.08324 378.940515,373.250936 366.616839,385.575636 L318.113149,434.075233 L365.024575,480.986659 L424.65672,421.355537 C435.787222,410.222989 441.156509,404.062686 448.708509,394.520355 L475.144601,420.957471 C466.99397,427.117774 460.236056,433.079556 448.111924,445.204711 Z" id="Path" fill="#FFFFFF"></path>
            <path d="M594.999342,258.162758 L499.78991,205.489095 C489.850537,199.923333 480.509798,194.160072 468.582141,185.81194 C477.725382,199.328792 483.489666,209.067597 488.062821,217.216184 L540.933982,312.227095 C547.494398,323.559188 552.266075,331.5113 556.438094,336.877518 L530.002002,363.31361 C524.038173,359.339089 524.038173,359.339089 504.161474,348.207564 L358.459044,265.715781 C343.552543,257.567194 335.402932,253.392104 326.857302,250.015194 L358.659612,218.209814 C365.815592,224.570685 372.773051,229.53986 383.705031,236.099253 L477.924926,293.346072 C485.477949,298.116725 497.800602,306.067815 505.950213,311.831075 C496.208338,296.92355 492.036319,289.965068 488.062821,282.809088 L433.398827,184.020131 C427.436022,173.285649 422.267302,165.33456 417.498695,159.372778 L441.946503,134.92497 C447.312721,139.095966 456.854028,145.059795 466.396358,150.228514 L565.184292,204.489325 C571.744708,208.269418 576.713883,211.251332 594.802867,222.979445 C591.225389,217.413683 591.225389,217.413683 585.461105,209.265095 C582.87521,205.487049 576.713884,196.14631 575.324234,193.958481 L518.870478,100.534718 C513.304716,90.992388 506.347257,81.650625 500.983086,75.888388 L532.787443,44.085055 C536.760941,53.623292 540.339443,60.780296 548.688598,75.488276 L630.781291,221.190706 C634.95638,228.146118 637.540228,232.72132 638.930902,234.905056 C642.90747,242.06206 642.90747,242.06206 646.482902,246.830666 L619.847265,273.466303 C614.282524,269.493827 603.747587,262.933411 594.999342,258.162758 Z" id="Path" fill="#FFFFFF"></path>
        </g>
    </g>
</svg>